<?xml version="1.0" standalone="no"?>
<!DOCTYPE svg PUBLIC "-//W3C//DTD SVG 20010904//EN"
 "http://www.w3.org/TR/2001/REC-SVG-20010904/DTD/svg10.dtd">
<svg version="1.0" xmlns="http://www.w3.org/2000/svg"
 width="1280.000000pt" height="776.000000pt" viewBox="0 0 1280.000000 776.000000"
 preserveAspectRatio="xMidYMid meet">
<metadata>
Created by potrace 1.15, written by Peter Selinger 2001-2017
</metadata>
<g transform="translate(0.000000,776.000000) scale(0.100000,-0.100000)"
fill="#000000" stroke="none">
<path d="M2955 7750 c-11 -5 -36 -9 -55 -9 -43 -1 -75 -22 -96 -62 -17 -33
-86 -100 -115 -111 -26 -10 -51 -52 -55 -95 -7 -77 -16 -113 -30 -113 -12 0
-14 -72 -14 -447 0 -441 5 -519 34 -553 8 -8 17 -32 20 -54 13 -70 52 -142
109 -198 30 -31 58 -65 61 -76 9 -28 93 -101 125 -109 14 -3 32 -11 40 -17 10
-8 -216 -13 -860 -17 -494 -3 -896 -10 -926 -16 -57 -10 -78 -24 -99 -65 -16
-32 -94 -107 -110 -108 -22 0 -48 -42 -56 -93 -5 -29 -11 -67 -15 -84 -3 -20
-11 -33 -20 -33 -12 0 -14 -66 -11 -472 3 -457 4 -474 24 -513 11 -22 31 -71
43 -110 23 -71 85 -166 121 -185 11 -6 29 -28 40 -50 21 -41 102 -110 129
-110 10 0 32 -11 51 -25 33 -25 36 -25 231 -25 121 0 200 -4 204 -10 4 -6 126
-10 334 -10 229 0 330 -3 338 -11 16 -16 137 -30 323 -38 85 -4 150 -8 144 -9
-6 -1 -19 -19 -30 -39 -21 -41 -83 -101 -124 -121 -30 -14 -50 -49 -50 -87 0
-34 -23 -115 -32 -115 -4 0 -8 -215 -8 -477 l0 -478 25 -40 c13 -22 25 -49 25
-60 1 -58 81 -195 134 -230 13 -9 29 -29 36 -46 7 -16 28 -43 46 -59 l34 -30
-1242 -4 c-684 -2 -1274 -7 -1312 -12 -58 -8 -72 -14 -90 -38 -41 -55 -102
-107 -151 -131 -55 -26 -71 -48 -79 -110 -9 -76 -18 -105 -32 -105 -12 0 -14
-76 -14 -470 0 -494 1 -503 44 -539 9 -8 16 -24 16 -38 0 -58 106 -211 163
-234 16 -7 36 -28 47 -49 21 -40 118 -110 154 -110 10 0 35 -10 55 -22 34 -22
51 -23 286 -31 138 -4 432 -11 655 -15 223 -4 412 -11 420 -16 34 -22 219 -28
1025 -35 670 -5 856 -3 877 6 15 7 55 13 88 13 34 0 76 7 93 15 19 8 78 16
142 19 234 12 245 14 265 51 15 29 42 40 88 36 19 -2 58 7 87 19 46 18 56 28
70 63 9 22 25 51 36 65 16 21 19 41 19 141 l0 116 25 -44 c14 -23 25 -51 25
-62 0 -58 97 -220 139 -234 11 -3 25 -22 31 -41 13 -38 99 -114 129 -114 9 0
32 -11 51 -25 33 -25 37 -25 230 -25 143 0 199 -3 208 -12 10 -10 100 -15 345
-19 312 -6 427 -15 522 -38 25 -7 293 -11 706 -11 570 0 668 2 685 15 11 8 42
14 75 15 30 0 64 6 74 14 13 9 38 12 84 8 45 -3 77 0 101 10 19 8 52 13 73 10
34 -4 42 0 75 36 30 32 44 40 73 40 54 0 114 35 129 74 6 18 21 49 31 69 14
27 19 58 19 115 1 72 2 77 15 60 8 -11 15 -28 15 -38 0 -56 114 -228 161 -243
11 -4 28 -24 39 -45 22 -43 113 -110 149 -110 12 0 35 -10 52 -23 29 -21 44
-22 267 -30 130 -4 408 -11 617 -15 222 -4 386 -11 395 -17 32 -21 195 -27
965 -33 630 -6 806 -4 827 5 15 7 52 13 83 13 31 0 66 6 78 12 12 7 74 16 137
21 241 16 222 12 256 51 27 32 37 36 78 36 64 0 130 33 150 75 9 18 16 36 16
40 0 4 9 18 20 32 20 25 20 41 20 730 0 638 -2 708 -17 733 -22 38 -120 65
-223 62 -51 -1 -86 3 -108 14 -26 12 -60 15 -150 13 -65 -2 -124 1 -132 6 -8
6 -49 13 -90 16 -73 6 -205 39 -245 62 -40 24 -240 29 -1220 33 -877 4 -997 6
-972 19 18 9 44 12 75 9 26 -3 67 0 92 6 25 7 61 13 80 14 19 2 43 3 53 4 10
1 27 18 38 37 19 31 25 35 64 35 58 0 121 34 135 74 7 17 21 47 31 67 18 35
19 68 19 739 0 629 -2 705 -16 729 -22 37 -141 74 -207 65 -31 -5 -59 -1 -91
11 -36 14 -66 17 -139 13 -70 -4 -99 -2 -112 8 -10 8 -41 14 -68 14 -28 0 -77
10 -111 23 l-61 22 234 3 c150 1 238 -1 245 -8 5 -5 30 -10 55 -10 26 0 68 -7
94 -15 40 -12 165 -14 732 -15 609 -1 687 0 707 14 14 10 44 16 78 16 31 0 60
4 66 9 5 5 47 12 94 15 164 10 204 17 228 39 12 11 22 26 22 33 0 16 21 23 52
17 41 -8 123 39 138 79 6 18 21 49 31 69 18 35 19 68 19 728 0 566 -3 698 -14
725 -12 28 -22 35 -82 54 -68 21 -97 24 -339 40 -66 4 -133 13 -148 20 -16 7
-46 12 -68 12 -43 0 -179 42 -212 65 -16 11 -38 13 -92 8 -49 -4 -74 -2 -79 6
-5 8 -198 11 -714 11 -614 1 -704 3 -682 15 16 9 39 12 63 8 34 -5 41 -2 76
36 31 34 44 41 75 41 50 0 114 34 128 68 5 15 19 45 29 68 18 39 19 76 19 750
-1 604 -3 712 -15 728 -24 31 -147 65 -211 59 -38 -4 -59 -2 -70 8 -12 10 -51
14 -134 15 -64 1 -126 7 -138 13 -11 6 -42 11 -68 11 -47 0 -179 40 -222 68
-16 11 -38 13 -85 8 -47 -5 -70 -3 -93 9 -28 13 -159 15 -1225 12 -695 -2
-1218 -8 -1251 -13 -60 -10 -92 -32 -111 -75 -14 -31 -83 -94 -114 -103 -20
-6 -23 -4 -23 19 0 30 -41 75 -68 75 -11 0 -37 7 -57 16 -28 11 -54 14 -94 9
-42 -5 -64 -2 -86 10 -23 12 -54 15 -131 14 -55 -2 -107 2 -115 7 -8 5 -43 11
-79 15 -37 3 -102 20 -150 39 -53 20 -117 37 -170 43 -108 12 -2488 19 -2515
7z m2405 -126 c24 -12 47 -15 91 -11 40 5 67 2 86 -7 54 -27 189 -66 226 -66
21 0 51 -7 67 -15 22 -12 49 -13 118 -9 72 6 98 3 136 -11 33 -13 61 -16 101
-12 31 3 67 1 85 -6 l30 -11 0 -666 c-1 -569 -3 -668 -15 -684 -8 -11 -15 -27
-15 -37 0 -21 -18 -29 -52 -22 -28 5 -106 -30 -125 -57 -15 -21 -55 -29 -190
-38 -60 -4 -107 -12 -115 -19 -7 -8 -37 -13 -68 -13 -31 0 -61 -5 -66 -10 -14
-14 -1333 -14 -1368 0 -14 5 -44 10 -68 11 -24 1 -49 7 -57 13 -9 7 -135 14
-350 19 -750 16 -744 16 -766 37 -11 10 -38 25 -59 32 -31 10 -46 24 -69 63
-16 28 -37 54 -46 59 -49 28 -109 130 -110 186 -1 14 -10 40 -21 57 -19 31
-20 53 -20 430 -1 268 3 399 10 401 5 2 10 33 10 72 0 38 5 72 10 75 6 3 10
23 11 43 0 33 7 43 60 87 33 28 68 63 77 78 12 20 23 27 37 23 11 -3 31 1 45
8 21 12 227 14 1186 15 1054 1 1164 0 1194 -15z m3746 -69 c19 -10 51 -15 94
-14 36 1 76 -2 90 -8 73 -31 190 -63 230 -63 25 -1 54 -7 65 -16 16 -12 39
-14 120 -8 81 5 106 3 130 -10 19 -10 55 -16 102 -16 39 0 83 -4 97 -10 l26
-10 0 -662 c-1 -567 -3 -666 -15 -682 -8 -11 -15 -27 -15 -37 0 -21 -24 -31
-55 -23 -26 6 -90 -23 -119 -55 -11 -12 -29 -21 -41 -21 -13 0 -39 -7 -60 -16
-28 -11 -54 -14 -101 -9 -48 6 -70 3 -95 -9 -18 -9 -52 -16 -76 -16 -24 0 -56
-6 -71 -12 -21 -10 -172 -12 -702 -6 -658 6 -775 10 -795 29 -5 5 -152 9 -331
9 -266 0 -327 3 -350 15 -23 12 -70 15 -220 15 -158 0 -194 3 -204 15 -7 8
-29 20 -49 26 -50 15 -65 27 -90 77 -12 24 -35 51 -50 60 -25 14 -40 33 -79
99 -7 13 -17 46 -22 74 -5 28 -19 62 -30 76 -19 25 -20 40 -20 424 0 338 2
399 14 399 11 0 16 19 19 73 10 132 13 142 81 203 33 30 66 65 72 76 8 14 22
21 48 23 20 1 42 7 48 13 9 9 310 12 1169 12 1022 0 1160 -2 1185 -15z m-2662
-1433 c36 -62 70 -104 90 -113 13 -6 30 -28 40 -49 9 -21 37 -54 63 -74 l46
-36 -334 1 c-233 0 -326 3 -309 10 14 6 36 8 49 6 37 -7 70 9 89 43 14 25 23
30 58 30 62 0 123 34 140 78 8 20 21 49 29 64 8 14 15 36 15 49 0 24 6 21 24
-9z m-2337 -283 c21 -21 152 -31 441 -36 155 -2 282 -5 282 -7 0 -15 -37 -69
-70 -101 l-41 -40 -22 28 c-41 50 -169 75 -413 82 -61 1 -120 8 -132 14 -11 6
-41 11 -65 11 -24 0 -82 13 -128 30 l-84 29 110 1 c70 0 115 -4 122 -11z
m-472 -79 c3 -5 42 -10 86 -10 43 0 87 -5 97 -10 34 -20 205 -70 240 -70 21
-1 48 -7 62 -15 19 -10 49 -12 122 -8 80 5 103 3 134 -12 28 -13 52 -16 97
-12 32 3 72 1 88 -5 l29 -10 0 -666 c-1 -571 -3 -670 -15 -686 -8 -11 -15 -28
-15 -38 0 -19 -8 -22 -48 -18 -33 2 -82 -18 -117 -50 -37 -34 -73 -42 -192
-45 -66 -2 -100 -7 -117 -19 -16 -10 -46 -16 -79 -16 -29 0 -58 -5 -63 -10 -7
-7 -230 -10 -667 -10 -551 0 -667 3 -722 15 -36 9 -71 15 -78 14 -7 -1 -25 3
-40 9 -19 8 -128 12 -347 12 -202 0 -321 4 -325 10 -4 6 -83 10 -204 10 -195
0 -198 0 -231 25 -19 14 -41 25 -49 25 -25 1 -57 32 -80 78 -12 23 -26 42 -31
42 -16 0 -81 74 -97 110 -8 19 -19 57 -24 84 -5 27 -16 57 -24 66 -13 14 -15
76 -15 418 0 261 3 402 10 402 6 0 10 29 10 68 0 37 5 73 11 79 6 6 11 26 11
45 0 28 9 40 60 83 33 28 66 62 75 77 12 20 24 26 51 26 19 0 39 5 45 11 15
15 2343 16 2352 1z m4308 -8 c42 -6 84 -15 92 -19 23 -13 -136 -8 -168 5 -16
7 -49 12 -75 13 -26 0 -56 4 -67 9 -26 12 111 7 218 -8z m-582 -38 c20 -10 53
-14 97 -13 37 1 76 -3 87 -9 45 -23 185 -62 227 -62 24 0 50 -6 56 -12 8 -8
60 -16 135 -20 197 -12 321 -24 339 -32 17 -8 18 -51 18 -660 l0 -651 -26 -52
c-24 -49 -28 -52 -63 -51 -41 0 -119 -35 -128 -57 -3 -8 -15 -15 -28 -15 -12
0 -40 -7 -60 -16 -29 -12 -55 -14 -107 -9 -54 6 -73 4 -93 -9 -14 -9 -45 -16
-72 -16 -26 0 -61 -7 -77 -15 -42 -22 -1288 -22 -1362 0 -27 8 -68 15 -91 15
-23 0 -45 5 -48 10 -4 6 -125 10 -329 10 -268 0 -329 3 -352 15 -23 12 -70 15
-218 15 -152 0 -193 3 -205 15 -9 8 -34 20 -56 27 -27 9 -46 24 -60 47 -11 18
-47 62 -80 96 -58 61 -95 131 -95 180 0 11 -9 35 -20 53 -19 31 -20 50 -20
433 0 264 3 398 10 394 6 -4 10 19 10 62 0 38 5 74 10 79 6 6 12 26 13 45 2
29 13 45 62 89 33 29 66 64 73 77 8 15 22 23 40 23 15 0 38 7 52 14 21 12 215
14 1178 15 1024 1 1156 -1 1183 -15z m1249 13 c0 -35 -55 -97 -137 -154 l-32
-23 -7 38 c-3 20 -12 46 -19 58 -17 27 -116 54 -202 54 -38 0 -75 6 -84 13
-13 10 35 13 233 15 136 2 248 2 248 -1z m2535 -87 c3 -5 39 -10 78 -10 56 0
94 -8 172 -35 59 -20 120 -35 148 -35 28 0 59 -7 74 -17 20 -13 52 -18 137
-19 129 -2 303 -17 329 -29 16 -7 17 -48 17 -663 l0 -655 -22 -48 c-21 -45
-26 -48 -60 -49 -44 0 -83 -15 -118 -45 -41 -35 -139 -59 -209 -51 -45 5 -68
3 -90 -9 -17 -8 -49 -15 -73 -15 -24 0 -56 -7 -72 -15 -24 -13 -121 -15 -680
-15 -435 0 -663 4 -686 11 -84 25 -174 32 -480 36 -191 2 -329 8 -334 13 -6 6
-93 10 -209 10 -198 0 -199 0 -229 25 -16 14 -40 25 -53 25 -22 0 -75 50 -75
71 0 6 -27 38 -60 71 -63 63 -82 95 -94 163 -4 22 -16 55 -27 73 -18 31 -19
56 -19 428 0 256 4 394 10 394 6 0 10 28 10 63 0 38 6 77 16 95 8 18 13 40 10
49 -3 13 14 34 61 73 36 30 70 65 76 78 7 16 19 22 41 22 17 0 38 5 46 10 21
14 2357 14 2365 0z m-2629 -1487 c20 -26 45 -53 56 -59 11 -6 30 -29 42 -52
24 -47 88 -101 128 -109 90 -18 -8 -23 -439 -22 -355 0 -472 3 -453 11 14 6
50 10 81 9 31 -2 76 3 100 10 24 7 60 12 79 10 35 -2 52 8 93 59 14 16 25 20
43 16 17 -5 43 2 80 20 47 23 55 32 66 68 6 22 18 48 25 57 8 9 16 40 20 69
l6 53 18 -46 c10 -25 35 -67 55 -94z m-3756 36 c0 -3 12 -12 26 -20 14 -7 35
-32 45 -54 22 -44 94 -105 126 -105 11 0 27 -7 34 -16 7 -9 22 -20 34 -24 11
-5 -189 -9 -444 -9 -447 -1 -557 6 -353 21 197 15 214 19 237 55 17 28 26 32
61 33 62 0 123 34 140 78 8 20 23 52 32 70 l17 33 22 -28 c13 -15 23 -31 23
-34z m686 -244 c23 -12 25 -15 9 -15 -25 1 -77 29 -54 30 9 0 30 -7 45 -15z
m749 -33 c39 -6 86 -16 105 -22 19 -5 106 -10 193 -10 l158 0 -20 -22 c-12
-12 -24 -30 -27 -41 -7 -22 -74 -85 -112 -104 -15 -8 -29 -19 -33 -25 -4 -5
-9 6 -13 25 -3 19 -14 41 -24 49 -31 27 -124 51 -191 49 -43 -1 -76 4 -99 15
-28 13 -55 16 -132 12 -72 -4 -102 -1 -115 9 -11 7 -41 13 -67 13 -46 0 -185
38 -218 60 -20 14 502 6 595 -8z m-819 -87 c20 -11 50 -15 94 -13 36 1 70 0
75 -4 32 -19 203 -68 239 -68 23 0 48 -6 54 -12 8 -8 60 -16 140 -20 201 -11
326 -23 340 -31 9 -6 12 -150 12 -662 l0 -653 -25 -51 c-24 -47 -28 -50 -63
-49 -43 0 -116 -33 -125 -57 -4 -8 -18 -15 -32 -15 -14 0 -40 -7 -57 -16 -25
-13 -47 -15 -105 -9 -59 5 -79 4 -98 -9 -14 -9 -45 -16 -72 -16 -26 0 -59 -6
-73 -13 -35 -17 -1357 -6 -1445 13 -39 8 -174 14 -385 17 -260 3 -331 6 -357
18 -24 12 -74 15 -220 15 -177 0 -191 1 -208 20 -10 11 -24 20 -32 20 -33 0
-74 33 -94 75 -12 25 -35 53 -51 63 -42 25 -85 95 -98 160 -6 32 -20 69 -31
84 -18 26 -19 48 -19 428 0 260 3 400 10 400 6 0 10 28 10 63 0 35 5 68 12 75
6 6 12 27 13 46 2 29 12 44 61 86 32 28 66 63 75 77 13 19 27 26 54 28 20 1
41 7 47 13 9 9 310 12 1169 12 1022 0 1160 -2 1185 -15z m3783 -51 c23 -12 50
-15 94 -12 37 3 71 0 87 -8 55 -27 188 -64 230 -64 25 0 54 -7 65 -16 16 -12
38 -13 117 -8 80 6 103 4 132 -10 25 -12 58 -16 109 -15 40 1 83 -4 95 -10
l22 -12 0 -658 0 -658 -24 -44 c-21 -39 -27 -44 -55 -41 -35 2 -125 -39 -134
-61 -7 -18 -52 -26 -184 -35 -60 -4 -107 -12 -115 -19 -6 -7 -35 -13 -62 -13
-28 0 -62 -6 -76 -13 -20 -9 -171 -11 -700 -5 -674 6 -773 10 -799 32 -10 7
-124 13 -355 19 -757 17 -722 15 -763 42 -19 14 -43 25 -52 25 -26 1 -53 27
-72 70 -10 22 -31 48 -47 57 -47 27 -102 120 -102 172 0 14 -11 44 -25 66
l-24 40 -1 398 c0 336 2 397 14 397 11 0 16 19 20 73 10 140 12 147 78 202 33
28 66 62 73 76 10 19 20 25 37 22 13 -2 34 3 48 11 21 12 200 14 1181 15 1045
1 1159 -1 1188 -15z m-2649 -1461 c8 -10 23 -31 33 -46 10 -15 29 -33 42 -39
14 -6 29 -26 36 -45 7 -21 30 -49 61 -74 l50 -39 -281 0 c-277 0 -281 0 -263
19 9 11 23 27 30 35 7 9 26 15 47 14 51 -2 121 37 135 76 6 17 20 48 31 68 12
24 19 58 19 95 l1 58 22 -52 c12 -29 29 -61 37 -70z m-2372 -282 c9 -5 -20
-10 -75 -13 -64 -4 -93 -1 -108 8 -17 12 -7 14 75 14 52 0 101 -4 108 -9z
m-799 -23 c8 -9 45 -13 109 -13 53 0 102 -3 107 -6 6 -4 42 -15 80 -24 39 -9
89 -23 113 -31 23 -8 67 -14 96 -14 30 0 67 -7 82 -15 23 -12 53 -13 145 -8
97 5 123 3 162 -12 35 -13 64 -16 118 -13 42 3 87 0 112 -7 l42 -12 3 -657 c2
-645 2 -658 -18 -683 -11 -14 -20 -32 -20 -39 0 -21 -34 -34 -71 -28 -39 7
-125 -26 -146 -55 -15 -22 -61 -30 -228 -37 -79 -4 -126 -11 -139 -20 -12 -8
-45 -14 -84 -14 -35 0 -75 -6 -90 -12 -21 -10 -203 -12 -857 -6 -835 7 -948
10 -974 31 -10 8 -139 14 -425 20 -911 16 -896 16 -926 37 -14 10 -39 22 -56
25 -52 12 -92 38 -107 71 -9 18 -28 40 -42 51 -88 60 -145 133 -145 183 0 25
-23 72 -44 89 -14 12 -16 62 -16 412 0 348 2 399 15 399 12 0 15 13 15 59 0
33 7 71 15 87 8 16 15 38 15 50 0 14 23 38 74 75 40 30 81 67 91 82 15 25 22
28 49 23 18 -3 41 0 56 8 35 20 2869 23 2889 4z m971 -9 c12 -7 11 -8 -5 -8
-11 0 -31 6 -45 14 l-25 15 30 -6 c17 -4 37 -10 45 -15z m522 -27 c-9 -22 -77
-83 -114 -101 -31 -16 -52 -60 -46 -96 3 -14 2 -28 -2 -30 -4 -3 -11 -21 -14
-40 -14 -72 -26 -33 -26 81 0 150 -10 169 -92 185 -32 6 -58 14 -58 18 0 3 81
5 180 3 166 -3 179 -4 172 -20z m3168 -1 c46 -7 88 -15 92 -19 12 -12 -176 -7
-199 6 -12 7 -44 12 -72 12 -50 0 -81 7 -81 19 0 7 142 -2 260 -18z m-614 -36
c19 -10 51 -15 94 -14 36 1 76 -2 90 -8 78 -33 162 -57 215 -62 33 -4 67 -11
75 -16 8 -6 69 -13 135 -17 203 -12 319 -23 333 -31 9 -6 12 -151 12 -670 -1
-566 -3 -665 -15 -681 -8 -11 -15 -28 -15 -38 0 -20 0 -20 -52 -23 -44 -3 -97
-26 -123 -55 -10 -11 -29 -20 -42 -20 -13 0 -38 -7 -55 -16 -24 -12 -46 -14
-99 -9 -53 5 -75 3 -100 -9 -18 -9 -52 -16 -76 -16 -24 0 -56 -6 -71 -12 -21
-10 -173 -12 -707 -6 -659 6 -769 10 -790 29 -5 5 -155 9 -335 9 -263 1 -330
3 -350 15 -19 11 -69 14 -215 15 -173 0 -192 2 -215 20 -14 11 -29 20 -33 20
-33 1 -79 37 -96 75 -10 23 -32 50 -48 60 -47 27 -103 122 -103 174 0 14 -11
44 -25 66 l-24 40 -1 398 c0 336 2 397 14 397 11 0 16 19 20 73 10 140 12 147
78 202 33 28 66 62 73 76 10 19 20 25 37 22 13 -2 34 3 48 11 21 12 200 14
1181 15 1023 1 1160 -1 1185 -14z m1311 -15 c-14 -16 -28 -38 -32 -47 -7 -19
-84 -79 -119 -92 -35 -14 -60 -50 -62 -89 0 -20 -4 -44 -7 -52 -3 -8 -8 -22
-10 -30 -3 -8 -6 40 -6 107 -1 112 -3 124 -23 146 -33 35 -140 66 -208 60 -40
-3 -60 0 -75 11 -18 14 7 15 273 16 l294 0 -25 -30z m2882 -82 c8 -9 44 -13
104 -13 55 0 101 -5 114 -13 12 -6 31 -12 42 -12 11 0 30 -4 43 -9 60 -24 135
-41 177 -41 25 -1 57 -7 71 -15 19 -11 50 -13 137 -8 91 5 119 3 153 -11 30
-12 66 -16 123 -14 46 1 94 -3 110 -10 l27 -12 0 -657 c0 -638 -1 -659 -20
-683 -11 -14 -20 -33 -20 -42 0 -19 -13 -22 -65 -19 -38 3 -118 -31 -136 -57
-16 -23 -55 -30 -221 -40 -71 -4 -122 -12 -130 -19 -7 -8 -38 -13 -78 -13 -36
0 -74 -6 -85 -12 -16 -10 -183 -12 -795 -6 -781 6 -893 10 -919 31 -10 8 -132
14 -395 20 -892 17 -844 15 -884 42 -20 14 -45 25 -55 25 -33 0 -73 31 -96 76
-13 24 -33 46 -44 50 -49 15 -126 128 -127 184 0 14 -11 42 -25 62 l-25 37 0
395 c0 336 2 396 14 396 11 0 16 19 19 73 10 143 16 153 132 234 17 12 37 33
44 46 11 21 20 25 58 24 24 0 49 5 55 11 18 18 2679 17 2697 0z"/>
</g>
</svg>
