<svg width="104" height="26" viewBox="0 0 104 26" fill="none" xmlns="http://www.w3.org/2000/svg">
<g clip-path="url(#clip0_7321_317)">
<path d="M52.619 14.2954L50.4109 16.4649V19.7697L52.6511 21.223L56.7853 21.198V22.6281H52.8818V21.779H50.4109V23.2415L52.619 25.3343H57.0487L59.2562 23.2415V19.601L57.0165 18.7718H52.8818V16.9829H56.7853V17.7711H59.2562V16.4649L57.0487 14.2954H52.619Z" fill="#0D2259"/>
<path d="M97.1749 14.2954L94.9668 16.4649V19.7697L97.2076 21.223L101.341 21.198V22.6281H97.4377V21.779H94.9668V23.2415L97.1749 25.3343H101.605L103.813 23.2415V19.601L101.572 18.7718H97.4377V16.9829H101.341V17.7711H103.813V16.4649L101.605 14.2954H97.1749Z" fill="#0D2259"/>
<path d="M68.0732 17.2277L68.0878 14.2949H60.4512L60.4382 17.2277H62.9058L62.9193 25.3418H65.6051L65.5921 17.2277H68.0732Z" fill="#0D2259"/>
<path d="M77.1584 17.2277H79.6294L79.6429 25.3418H82.3281L82.3146 17.2277H84.7934L84.8075 14.2949H77.1754L77.1584 17.2277Z" fill="#0D2259"/>
<path d="M71.9079 20.6742L72.8244 18.2321L73.6879 20.6742H71.9079ZM71.7742 14.2958L67.5383 25.339H70.1024L70.9152 23.3174H74.623L75.3845 25.339H78.1024L73.878 14.293L71.7742 14.2958Z" fill="#0D2259"/>
<path d="M82.4769 7.60985L81.6873 8.44471H79.2508L78.42 7.60985V4.21306L79.2508 3.24757H81.6873L82.4769 4.21306V7.60985ZM78.1076 0.556152L75.7625 3.13228V8.56057L78.1076 11.139H82.7888L85.1334 8.56057V3.13228L82.7888 0.556152H78.1076Z" fill="#0D2259"/>
<path d="M73.9372 11.139V8.44471H70.997L70.1662 7.60985V4.21363L70.997 3.24814H73.9372V0.556152H69.8526L67.5081 3.13228V8.56057L69.8526 11.139H73.9372Z" fill="#0D2259"/>
<path d="M86.0623 17.2075V22.7584L88.4068 25.1068H93.4536V22.412H89.4982L88.7198 21.6328V21.112H93.4536V18.7545H88.7198V18.2286L89.6031 17.2183H93.4536V14.5234H88.4068L86.0623 17.2075Z" fill="#0D2259"/>
<path d="M104 7.14414V4.78723H99.2623V4.26133L100.145 3.25098H103.997V0.556152H98.9498L96.6052 3.24018V8.79115L98.9498 11.1395H103.997V8.44471H100.041L99.2623 7.6655V7.14471L104 7.14414Z" fill="#0D2259"/>
<path d="M92.4954 7.60993L91.7058 8.44422H89.3522V3.24992H91.7058L92.4954 4.21541V7.60993ZM94.9669 8.56008V3.13236L92.8085 0.555664H86.9597V8.44422H86.9496V11.1243H86.7578V11.1391H92.8085L94.9669 8.56008Z" fill="#0D2259"/>
<path d="M26.4582 1.16553L24.033 3.62581V8.34474L26.4616 10.8067H39.639L42.0676 8.34474V3.62581L39.6424 1.16553H26.4582Z" fill="#452CDD"/>
<path d="M16.0414 14.994L13.6162 17.4542V22.1732L16.0448 24.6352H39.6389L42.0675 22.1732V17.452L39.6423 14.9917L16.0414 14.994Z" fill="#0D2259"/>
<path d="M2.42694 14.994L0.00170898 17.4542V22.1732L2.43032 24.6352H7.08337L9.51199 22.1732V17.452L7.08676 14.9917L2.42694 14.994Z" fill="#0D2259"/>
</g>
<defs>
<clipPath id="clip0_7321_317">
<rect width="104" height="24.8889" fill="white" transform="translate(0 0.555664)"/>
</clipPath>
</defs>
</svg>
