<?xml version="1.0" standalone="no"?>
<!DOCTYPE svg PUBLIC "-//W3C//DTD SVG 20010904//EN"
 "http://www.w3.org/TR/2001/REC-SVG-20010904/DTD/svg10.dtd">
<svg version="1.0" xmlns="http://www.w3.org/2000/svg"
 width="864.000000pt" height="684.000000pt" viewBox="0 0 864.000000 684.000000"
 preserveAspectRatio="xMidYMid meet">

<g transform="translate(0.000000,684.000000) scale(0.100000,-0.100000)"
fill="#000000" stroke="none">
<path d="M4840 6340 c-8 -5 -55 -10 -103 -10 -49 0 -98 -5 -110 -12 -12 -7
-34 -11 -49 -9 -16 1 -42 -5 -60 -13 -17 -9 -44 -16 -60 -16 -15 0 -36 -4 -46
-9 -55 -31 -126 -61 -141 -61 -10 0 -28 -11 -41 -25 -13 -14 -32 -25 -42 -25
-10 0 -18 -4 -18 -8 0 -5 -12 -15 -27 -22 -16 -8 -47 -32 -70 -53 -40 -38 -43
-39 -72 -27 -18 7 -44 10 -63 6 -18 -4 -48 -9 -66 -13 -18 -3 -35 -9 -38 -14
-3 -5 -18 -9 -33 -9 -16 0 -37 -10 -51 -25 -13 -14 -30 -25 -37 -25 -8 0 -17
-8 -20 -17 -4 -10 -17 -29 -30 -42 -19 -20 -23 -34 -23 -87 0 -34 -4 -66 -10
-69 -5 -3 -10 -17 -10 -31 0 -13 5 -24 10 -24 6 0 10 -4 10 -10 0 -5 -8 -10
-18 -10 -27 0 -82 -62 -82 -92 0 -15 -4 -30 -10 -33 -15 -9 -13 -241 2 -265
10 -16 10 -24 0 -40 -6 -11 -12 -33 -12 -50 0 -17 -7 -42 -16 -55 -11 -17 -14
-36 -10 -56 3 -19 0 -42 -9 -59 -9 -17 -15 -56 -15 -93 0 -45 -5 -68 -15 -77
-12 -10 -15 -44 -15 -186 0 -96 -3 -174 -6 -174 -4 0 -32 27 -64 60 -32 33
-65 60 -74 60 -9 0 -16 5 -16 10 0 6 -7 10 -17 10 -9 0 -31 11 -49 25 -18 14
-44 25 -59 25 -14 0 -39 7 -56 15 -16 9 -44 15 -63 13 -19 -1 -41 4 -49 11
-12 10 -24 10 -59 0 -24 -7 -81 -11 -128 -10 -57 2 -100 -3 -130 -13 -25 -9
-57 -16 -71 -16 -14 0 -34 -7 -45 -15 -10 -8 -36 -15 -56 -15 -20 0 -40 -4
-43 -10 -3 -5 -26 -10 -51 -10 -24 0 -44 -4 -44 -10 0 -5 -12 -10 -27 -10 -16
0 -37 -7 -47 -15 -11 -8 -28 -15 -38 -15 -23 0 -74 -26 -101 -51 -12 -10 -28
-19 -37 -19 -22 0 -94 -35 -110 -54 -7 -9 -18 -16 -25 -16 -7 0 -18 -7 -25
-15 -7 -8 -21 -15 -31 -15 -10 0 -24 -9 -31 -20 -7 -11 -19 -20 -26 -20 -16 0
-83 -42 -101 -64 -8 -9 -36 -28 -64 -42 -28 -14 -68 -41 -89 -60 -21 -18 -43
-34 -49 -34 -7 0 -19 -8 -28 -17 -17 -18 -76 -53 -90 -53 -5 0 -25 -16 -45
-35 -21 -19 -43 -35 -50 -35 -6 0 -30 -18 -51 -40 -23 -23 -49 -40 -61 -40
-28 0 -142 -103 -150 -135 -3 -12 -37 -53 -75 -91 -38 -38 -69 -73 -69 -79 0
-6 -23 -33 -50 -60 -28 -27 -50 -57 -50 -66 0 -9 -9 -24 -21 -35 -12 -10 -30
-37 -41 -59 -12 -22 -29 -51 -39 -64 -11 -13 -19 -32 -19 -42 0 -10 -11 -38
-25 -63 -14 -25 -25 -53 -25 -64 0 -10 -7 -27 -15 -38 -8 -10 -15 -29 -15 -41
0 -12 -4 -25 -10 -28 -5 -3 -10 -19 -10 -35 0 -16 -5 -32 -10 -35 -6 -3 -10
-37 -10 -76 0 -38 -5 -78 -12 -88 -9 -15 -9 -25 0 -46 7 -14 12 -40 12 -56 0
-36 14 -64 35 -73 17 -6 105 68 105 89 0 14 78 105 90 105 5 0 10 -17 12 -37
2 -28 9 -41 30 -52 24 -14 30 -13 70 8 64 34 116 72 188 140 35 34 69 61 75
61 6 0 26 16 45 35 19 19 38 35 43 35 5 0 34 22 65 50 31 27 61 50 67 50 6 0
22 11 35 25 13 14 28 25 34 25 5 0 19 9 30 19 12 11 34 22 50 25 16 3 34 10
40 16 5 5 35 10 66 10 40 0 67 7 99 25 23 14 48 25 55 25 6 0 38 27 71 60 62
63 81 72 92 43 4 -10 17 -33 30 -52 21 -31 22 -36 8 -51 -8 -9 -15 -28 -15
-43 0 -14 -4 -29 -10 -32 -5 -3 -10 -19 -10 -35 0 -16 -4 -32 -10 -35 -5 -3
-10 -23 -10 -44 0 -22 -6 -44 -15 -51 -8 -7 -15 -27 -15 -44 0 -17 -7 -50 -15
-73 -13 -38 -13 -47 2 -93 25 -77 92 -102 156 -58 43 30 317 300 317 313 0 15
129 145 144 145 29 0 166 168 166 205 0 16 16 48 37 75 6 8 13 28 15 44 3 28
4 29 140 97 10 5 24 9 32 9 8 0 16 7 20 15 3 8 12 15 19 15 21 0 72 27 92 50
19 21 50 26 60 10 3 -5 21 -10 40 -10 18 0 53 -11 76 -25 24 -14 58 -25 75
-25 16 0 39 -7 50 -15 10 -8 29 -15 41 -15 12 0 25 -5 28 -10 3 -6 19 -10 34
-10 16 0 36 -9 47 -21 10 -12 29 -25 42 -30 19 -7 22 -16 22 -67 0 -36 -6 -66
-15 -78 -8 -10 -15 -33 -15 -50 0 -17 -3 -34 -7 -38 -15 -15 -33 -84 -33 -129
0 -26 -7 -62 -16 -79 -9 -17 -14 -42 -11 -57 3 -14 -1 -37 -8 -51 -21 -37 -20
-261 1 -301 8 -17 13 -37 11 -44 -3 -7 1 -25 9 -40 8 -15 14 -35 14 -45 0 -19
27 -77 39 -85 18 -10 0 -109 -30 -167 -5 -10 -9 -26 -9 -36 0 -11 -11 -31 -25
-46 -14 -15 -25 -35 -25 -46 0 -20 -30 -83 -42 -88 -5 -2 -8 -10 -8 -17 0 -7
-10 -33 -21 -57 -12 -23 -28 -58 -35 -75 -8 -18 -21 -49 -30 -67 -9 -19 -14
-41 -11 -49 3 -8 -1 -27 -9 -42 -8 -15 -14 -49 -14 -76 0 -26 -4 -51 -10 -54
-5 -3 -10 -22 -10 -41 0 -20 -4 -43 -9 -53 -6 -10 -11 -68 -12 -130 -1 -73 -7
-117 -15 -129 -21 -27 -18 -163 4 -201 16 -30 16 -32 0 -62 -21 -36 -24 -139
-6 -157 7 -7 12 -44 13 -89 0 -51 5 -78 13 -81 7 -2 12 -14 12 -27 0 -12 12
-48 26 -79 29 -65 56 -74 73 -26 5 17 14 30 19 30 4 0 18 21 30 47 12 27 38
77 57 113 19 36 35 73 35 83 0 9 5 27 12 40 6 12 14 29 18 37 14 29 37 23 43
-12 7 -45 30 -108 39 -108 5 0 8 -9 8 -20 0 -27 20 -109 36 -147 8 -17 14 -43
14 -57 0 -15 11 -44 25 -66 14 -22 25 -48 25 -58 0 -43 61 -132 90 -132 28 0
116 102 154 180 20 41 36 83 36 92 0 9 11 36 25 59 14 24 25 54 25 65 0 29 55
87 77 82 10 -2 20 -14 21 -28 2 -13 10 -33 18 -44 8 -11 14 -30 14 -43 0 -12
5 -25 10 -28 6 -3 10 -17 10 -30 0 -24 90 -208 117 -237 30 -33 103 -11 103
30 0 6 9 27 20 47 11 20 20 50 20 68 0 18 7 41 15 51 8 11 15 30 15 42 0 13 5
26 10 29 6 3 10 32 10 64 0 43 7 70 25 105 14 26 25 58 25 72 0 13 5 24 10 24
6 0 10 58 10 154 0 102 4 157 11 162 7 4 8 20 4 43 -4 20 -9 87 -12 150 -3 77
-9 118 -18 127 -10 11 -11 21 -3 46 6 18 12 38 14 45 4 16 70 44 88 37 8 -3
17 -1 21 5 10 16 81 13 95 -4 16 -19 41 -19 66 0 14 11 48 14 131 15 63 0 114
4 118 10 3 6 24 10 45 10 21 0 42 5 45 10 8 13 42 13 50 0 3 -5 -1 -20 -9 -32
-13 -18 -16 -51 -16 -151 0 -71 -5 -137 -11 -148 -5 -11 -12 -45 -14 -75 -1
-31 -8 -61 -14 -67 -14 -14 -14 -62 0 -88 8 -15 7 -24 -2 -35 -9 -11 -9 -20 0
-37 6 -12 13 -41 15 -65 2 -24 8 -48 15 -55 6 -6 11 -23 11 -38 0 -15 7 -32
15 -39 8 -7 15 -17 15 -22 0 -5 9 -28 20 -50 15 -31 20 -62 20 -118 0 -51 5
-82 15 -96 10 -13 14 -45 15 -101 0 -45 4 -84 9 -87 5 -4 12 -24 16 -46 4 -22
11 -40 16 -40 5 0 9 -6 9 -13 0 -23 39 -94 55 -100 8 -4 15 -13 15 -21 0 -20
49 -76 66 -76 8 0 31 -16 53 -35 21 -19 45 -35 52 -35 8 0 37 -11 64 -25 28
-13 62 -25 76 -25 14 0 34 -7 45 -15 24 -18 204 -21 222 -3 7 7 31 13 55 13
68 3 238 91 315 165 34 33 62 65 62 73 0 7 23 35 50 62 35 34 50 57 50 76 0
14 9 34 20 44 11 10 31 42 45 71 14 29 30 56 35 59 6 3 19 25 29 49 24 51 65
106 149 195 34 37 62 75 62 84 0 10 8 17 18 17 21 0 82 60 82 81 0 8 9 20 20
27 11 7 20 18 20 26 0 12 15 34 79 118 13 15 21 41 21 63 0 30 8 44 46 81 26
24 52 44 59 44 19 0 52 41 75 92 11 26 25 50 30 53 6 3 10 37 10 74 0 72 25
136 70 176 11 10 20 26 20 36 0 22 36 93 56 110 8 6 14 17 14 25 0 7 13 26 29
41 16 15 38 42 48 59 10 18 33 53 51 80 28 39 32 53 27 81 -5 30 -9 33 -40 33
-18 0 -35 5 -37 11 -6 18 -98 20 -122 3 -11 -8 -41 -14 -66 -14 -49 0 -93 -13
-158 -48 -23 -12 -51 -22 -61 -22 -9 0 -28 -11 -41 -25 -13 -14 -31 -25 -41
-25 -10 0 -21 -5 -24 -10 -13 -21 -85 -60 -109 -60 -14 0 -28 -5 -31 -11 -4
-5 -17 -14 -28 -20 -12 -5 -29 -14 -38 -21 -30 -21 -46 -3 -54 61 -5 47 -3 65
9 83 9 12 16 32 16 43 0 12 5 26 12 33 6 6 11 28 10 49 -1 20 5 50 13 66 8 17
15 40 15 53 0 13 5 26 10 29 6 3 10 19 10 34 0 15 4 31 9 36 5 6 11 30 14 55
2 25 10 59 17 76 12 28 11 35 -3 58 -16 24 -23 26 -92 26 -57 0 -83 -5 -112
-21 -21 -12 -40 -24 -43 -28 -3 -4 -25 -17 -50 -30 -25 -12 -59 -36 -77 -53
-17 -17 -42 -36 -54 -42 -13 -6 -29 -21 -35 -34 -6 -12 -37 -51 -70 -86 -32
-34 -67 -75 -77 -90 -35 -51 -72 -14 -43 43 9 17 16 38 16 49 0 10 4 22 9 27
13 14 21 79 30 245 7 116 6 149 -5 167 -9 14 -14 53 -14 108 0 50 -4 85 -10
85 -5 0 -10 8 -10 18 0 9 -7 26 -15 36 -8 11 -13 28 -10 37 4 10 -1 32 -9 48
-9 17 -16 42 -16 56 0 14 -7 37 -16 50 -16 25 -16 92 2 228 4 31 2 53 -5 60
-7 7 -11 52 -11 113 0 58 -4 106 -10 109 -5 3 -10 17 -10 30 0 13 5 27 10 30
6 3 10 17 10 30 0 26 54 95 75 95 7 0 23 11 36 25 13 14 40 34 59 45 19 10 53
37 75 59 l39 41 86 0 c59 -1 91 -5 104 -15 11 -8 34 -15 52 -15 18 0 36 -4 39
-10 4 -6 75 -10 180 -10 105 0 176 -4 180 -10 3 -5 19 -10 35 -10 16 0 32 -4
35 -10 3 -5 17 -10 30 -10 13 0 37 -11 53 -24 37 -32 105 -56 159 -56 23 0 45
-4 48 -10 3 -6 48 -10 99 -10 64 0 103 -5 122 -15 16 -8 52 -15 80 -15 27 0
54 -4 60 -9 5 -5 47 -12 94 -15 137 -9 189 -14 198 -20 6 -3 15 1 22 9 7 8 25
15 41 15 35 0 68 42 50 63 -33 40 -126 127 -135 127 -7 0 -34 23 -61 50 -27
28 -53 50 -59 50 -5 0 -24 11 -42 25 -18 14 -36 25 -40 25 -16 0 -64 54 -64
72 0 15 8 18 46 18 30 0 60 9 92 27 43 24 56 26 139 24 66 -2 101 2 125 13 23
11 71 16 162 18 154 4 160 8 126 83 -25 54 -115 155 -138 155 -8 0 -22 8 -31
18 -28 30 -180 102 -216 102 -19 0 -37 5 -40 10 -3 6 -19 10 -34 10 -16 0 -34
7 -41 15 -8 9 -29 15 -56 15 -32 0 -46 5 -53 19 -13 23 -5 31 30 31 15 0 31 5
34 10 3 6 21 10 40 10 19 0 37 5 40 10 3 6 21 10 38 10 18 0 41 7 51 15 11 8
28 15 38 15 16 0 102 42 121 60 17 15 -8 41 -71 75 -37 19 -72 35 -79 35 -7 0
-13 5 -13 10 0 6 -24 10 -54 10 -30 0 -58 5 -61 10 -10 15 -478 13 -493 -2
-10 -10 -17 -10 -32 0 -24 15 -196 16 -205 2 -3 -5 -30 -10 -60 -10 -30 0 -57
-4 -60 -10 -3 -6 -51 -10 -108 -10 -70 -1 -110 -5 -127 -15 -14 -8 -42 -14
-62 -15 -20 0 -40 -4 -43 -10 -3 -5 -28 -10 -54 -10 -26 0 -56 -7 -67 -15 -10
-8 -33 -15 -51 -15 -18 0 -47 -8 -66 -19 -18 -10 -47 -22 -64 -25 -17 -4 -39
-16 -49 -27 -9 -10 -25 -19 -35 -19 -22 0 -93 -36 -110 -56 -6 -8 -17 -14 -24
-14 -6 0 -22 -9 -35 -20 -13 -11 -28 -20 -34 -20 -14 0 -86 148 -86 177 0 12
-4 25 -10 28 -5 3 -10 22 -10 42 0 20 -7 45 -16 54 -15 17 -15 20 0 43 9 14
16 41 16 60 0 19 4 37 9 40 9 6 22 67 21 96 -6 111 -13 187 -19 195 -4 5 -8
48 -9 94 -2 55 -7 90 -17 104 -8 12 -15 27 -15 34 0 19 -58 139 -74 152 -7 6
-43 27 -80 46 -60 31 -76 35 -142 35 -48 0 -86 -6 -105 -15 -28 -15 -32 -14
-92 18 -34 19 -78 43 -97 55 -63 38 -194 102 -208 102 -21 0 -112 32 -118 41
-3 5 -64 9 -135 9 -75 0 -139 5 -151 11 -14 8 -23 8 -31 0 -14 -14 -54 -14
-62 -1 -8 12 -16 12 -35 0z m370 -58 c102 -18 381 -146 444 -204 29 -27 74
-31 146 -14 80 18 190 3 234 -32 64 -50 119 -187 137 -339 7 -65 6 -78 -16
-125 -21 -47 -60 -209 -85 -353 -5 -27 -16 -88 -24 -135 -8 -47 -17 -119 -20
-160 -4 -65 -13 -111 -42 -208 -9 -30 12 -97 43 -139 20 -27 31 -33 63 -33 46
0 83 38 101 103 22 81 39 172 39 210 0 35 16 51 24 25 67 -218 76 -323 46
-493 -12 -66 -28 -141 -36 -167 -9 -26 -13 -51 -11 -55 3 -5 -7 -36 -23 -68
-16 -33 -30 -71 -31 -85 -2 -42 -29 70 -29 120 0 73 -17 119 -46 126 -38 10
-47 -6 -29 -56 8 -23 18 -75 21 -114 4 -39 11 -77 16 -83 6 -7 7 -20 4 -30 -6
-15 -10 -13 -25 11 -24 35 -58 59 -76 52 -23 -9 -18 -32 13 -54 26 -19 27 -25
28 -104 1 -101 2 -108 14 -108 14 0 33 39 41 85 6 37 7 38 8 8 0 -17 6 -35 11
-38 13 -8 13 -89 1 -129 -5 -17 -14 -70 -20 -117 -6 -47 -20 -104 -31 -127
-11 -22 -20 -49 -20 -58 0 -9 -13 -46 -30 -81 -16 -34 -30 -66 -30 -71 0 -4
-14 -25 -30 -46 -17 -22 -30 -45 -30 -51 0 -7 -18 -25 -40 -40 -22 -15 -40
-32 -40 -36 0 -5 -12 -17 -27 -26 -24 -16 -57 -18 -318 -19 -170 0 -333 -5
-395 -13 -177 -21 -210 -21 -285 1 -142 41 -286 123 -306 173 -7 17 -20 39
-30 50 -10 11 -44 72 -76 135 -32 63 -73 136 -91 162 -36 53 -112 115 -151
125 -44 10 -147 62 -166 83 -17 19 -38 86 -55 180 -39 206 -65 240 -184 240
-36 0 -68 -5 -71 -10 -7 -11 -2 -13 78 -30 63 -13 84 -28 93 -68 3 -15 9 -35
15 -44 5 -10 9 -26 9 -36 0 -31 40 -184 59 -227 10 -22 24 -62 31 -90 27 -100
67 -123 113 -63 l25 31 39 -17 c61 -29 113 -68 128 -96 9 -18 12 -49 8 -105
-6 -85 9 -162 32 -171 7 -3 28 2 46 12 33 16 33 16 56 -10 13 -15 23 -35 23
-45 0 -9 11 -32 25 -51 14 -19 25 -42 25 -51 0 -9 18 -49 40 -88 23 -40 45
-83 50 -97 6 -14 40 -61 78 -105 130 -154 228 -191 502 -190 122 1 178 5 213
17 26 9 55 13 64 10 9 -4 32 -1 52 5 103 34 182 135 191 244 4 54 8 61 33 73
47 22 51 6 27 -99 -21 -90 -33 -121 -85 -218 -46 -84 -63 -95 -234 -152 l-115
-39 -211 0 -211 0 -68 35 c-38 19 -77 35 -88 35 -48 0 -126 68 -218 190 -50
67 -98 136 -105 153 -7 18 -31 55 -52 82 -22 28 -47 72 -57 98 -10 26 -28 60
-40 75 -13 15 -26 34 -29 42 -4 8 -27 44 -52 80 -24 36 -54 79 -65 95 -92 136
-195 265 -211 265 -12 0 -132 91 -143 108 -5 8 -27 34 -50 59 -66 69 -165 288
-166 368 -1 11 -8 38 -16 60 -8 22 -19 65 -25 95 -6 30 -15 78 -21 105 -15 78
-27 382 -17 460 11 97 20 143 68 355 4 19 15 47 25 62 10 15 19 56 23 97 5 60
3 71 -11 77 -21 8 -25 4 -28 -29 -1 -15 -6 -27 -10 -27 -11 0 3 171 18 208 24
59 42 36 53 -68 5 -46 9 -55 26 -55 22 0 22 -17 10 205 -6 114 -5 141 9 174 9
21 14 42 11 46 -8 13 35 42 130 88 45 22 59 24 142 19 92 -5 93 -5 112 22 11
15 32 33 48 41 40 21 111 69 118 81 4 5 13 9 21 9 7 0 43 14 77 30 35 17 70
30 76 30 7 0 27 6 44 14 80 35 122 46 177 46 32 0 62 5 65 10 9 14 416 7 505
-8z m970 -842 c0 -5 -5 -10 -11 -10 -5 0 -7 5 -4 10 3 6 8 10 11 10 2 0 4 -4
4 -10z m-30 -214 c14 -18 25 -196 12 -214 -5 -8 -25 -14 -43 -15 -29 -2 -34 1
-32 18 2 11 5 40 8 65 4 25 8 59 10 75 6 48 16 85 25 85 4 0 13 -7 20 -14z
m1730 -19 c3 0 19 3 37 7 19 4 40 3 53 -4 11 -6 43 -13 70 -15 27 -1 52 -5 57
-8 4 -3 26 -8 48 -13 63 -11 146 -54 143 -73 -2 -9 -14 -17 -28 -19 -14 -2
-34 -7 -45 -11 -49 -21 -112 -41 -131 -41 -11 0 -53 -13 -94 -29 -66 -25 -84
-28 -153 -23 -42 2 -80 9 -83 14 -3 5 -8 23 -11 41 -3 17 -13 44 -24 58 -10
15 -19 31 -19 35 0 4 -12 20 -27 36 -14 15 -23 31 -20 35 4 3 43 7 88 9 44 1
83 4 86 8 4 3 16 3 27 0 12 -3 23 -7 26 -7z m-335 -18 c33 -11 66 -26 73 -32
23 -18 72 -110 72 -134 0 -21 -2 -22 -91 -16 l-91 6 4 -24 c4 -29 41 -38 173
-39 85 0 205 -23 265 -49 43 -20 94 -61 115 -94 16 -26 20 -48 19 -120 -1 -94
-17 -131 -74 -175 -27 -20 -102 -52 -124 -52 -19 0 -126 105 -126 125 0 42
-62 60 -68 20 -3 -21 9 -40 69 -109 54 -63 129 -173 129 -190 0 -8 -5 -18 -11
-22 -6 -3 -9 -18 -6 -33 6 -30 -27 -91 -49 -91 -8 0 -17 -6 -20 -14 -3 -8 -20
-18 -37 -22 -18 -3 -36 -10 -42 -14 -20 -15 -131 -17 -205 -4 -86 15 -209 56
-259 85 -23 13 -67 24 -125 30 -50 5 -111 14 -136 19 -25 4 -65 6 -90 3 -25
-2 -81 1 -125 7 -107 15 -124 17 -168 19 -26 1 -39 6 -43 19 -18 56 -16 57
-94 -22 -41 -42 -79 -76 -83 -76 -5 0 -23 -16 -41 -35 -18 -19 -35 -32 -38
-29 -6 6 8 57 25 89 11 21 11 30 23 275 5 116 3 161 -10 225 -9 44 -21 84 -26
89 -6 6 -10 24 -10 41 0 25 7 34 35 49 19 10 43 27 55 38 46 43 316 153 425
173 44 9 94 20 110 25 17 5 66 11 110 15 134 10 259 27 278 37 10 5 46 13 80
17 34 5 64 9 67 10 3 0 33 -8 65 -20z m720 -394 c105 -47 133 -64 188 -114 32
-30 65 -67 73 -82 28 -55 24 -57 -103 -63 -65 -4 -162 -9 -215 -12 -79 -4 -98
-3 -98 8 0 8 5 19 10 24 6 6 12 58 13 115 1 86 -2 109 -17 131 -10 16 -16 34
-13 42 6 15 43 4 162 -49z m-2121 -110 c9 -25 -5 -75 -25 -85 -39 -22 -60 -6
-71 56 -6 34 83 61 96 29z m-3054 -22 c69 -13 196 -84 286 -162 l81 -70 6 -78
c9 -109 101 -391 162 -495 30 -50 36 -69 31 -97 -3 -19 -1 -40 5 -47 5 -6 12
-35 16 -63 7 -60 -9 -69 -31 -18 -8 17 -23 41 -33 52 -27 29 -119 71 -188 85
-33 7 -75 19 -95 28 -97 42 -120 54 -120 62 0 5 18 31 40 59 43 54 48 72 25
91 -23 19 -39 9 -95 -59 -29 -34 -67 -69 -84 -77 -17 -8 -51 -28 -76 -44 -25
-17 -65 -40 -90 -52 -25 -11 -61 -31 -80 -43 l-36 -23 0 22 c0 11 8 27 18 34
10 7 18 19 18 27 0 17 -61 48 -72 37 -4 -4 -13 -35 -19 -67 -6 -33 -17 -75
-25 -94 -8 -18 -14 -41 -14 -50 0 -16 -57 -135 -102 -213 -35 -61 -43 -54 -39
34 4 97 -9 131 -62 165 -34 21 -48 24 -106 20 -90 -6 -184 -31 -248 -68 -53
-30 -69 -49 -88 -101 -14 -40 -26 -38 -53 7 -17 30 -22 51 -19 85 6 66 81 215
140 277 38 41 47 56 42 73 -5 15 -1 29 13 43 29 33 42 62 42 97 0 41 -29 38
-51 -7 -9 -17 -24 -44 -35 -60 -10 -15 -24 -39 -30 -53 -7 -14 -39 -57 -72
-96 -34 -38 -63 -83 -66 -99 -3 -15 -10 -33 -16 -39 -5 -5 -10 -18 -10 -27 0
-9 -7 -22 -15 -29 -11 -9 -13 -25 -9 -64 l6 -52 -54 -57 c-49 -52 -135 -107
-165 -107 -15 0 -16 6 -4 28 6 11 4 31 -5 57 -7 22 -14 59 -14 82 0 23 -5 45
-11 49 -7 4 -9 21 -5 46 5 32 3 42 -17 61 -13 12 -29 38 -37 57 -26 66 -71
119 -116 136 -43 16 -44 16 -99 -11 -31 -15 -67 -39 -80 -53 -13 -14 -27 -23
-30 -20 -17 17 87 157 134 181 14 7 35 18 46 24 11 6 39 20 62 32 76 37 223
159 223 186 0 30 -34 13 -130 -66 -48 -39 -176 -119 -191 -119 -12 0 -109 -72
-109 -80 0 -4 -8 -15 -18 -26 -34 -37 -82 -115 -82 -134 0 -26 -30 -100 -41
-101 -5 -1 -13 -2 -19 -3 -5 -1 -24 24 -43 55 l-34 56 32 35 c37 39 143 128
154 128 5 0 21 11 37 25 16 14 34 25 39 25 6 1 26 14 45 30 19 17 38 30 43 30
5 0 22 11 39 25 16 14 35 25 42 25 7 0 25 14 42 31 25 27 64 53 193 129 36 21
108 68 156 100 22 15 87 52 145 82 58 30 114 59 125 65 41 21 91 42 115 47 78
16 181 46 208 60 17 9 44 16 59 16 16 0 44 5 63 10 19 6 80 13 135 16 55 4
102 9 105 11 6 6 152 -4 210 -14z m4920 -410 c14 -10 39 -30 55 -45 53 -50
126 -108 134 -108 5 0 16 -12 26 -26 14 -22 15 -28 4 -36 -24 -16 -350 -1
-388 18 l-32 16 40 30 c48 35 104 114 97 135 -14 35 24 44 64 16z m-6488 -453
c33 -26 83 -129 99 -205 18 -88 22 -207 7 -225 -7 -9 -55 -42 -107 -75 -51
-33 -119 -83 -150 -111 -32 -28 -84 -69 -117 -91 -32 -23 -98 -75 -146 -116
-48 -41 -104 -85 -125 -98 -21 -13 -44 -29 -52 -37 -31 -30 -55 20 -40 85 4
21 6 48 3 60 -3 11 -1 30 5 41 6 11 13 36 15 55 3 19 14 51 25 71 12 20 21 44
21 53 0 8 18 51 40 95 22 44 40 87 40 95 0 7 9 23 20 35 11 12 20 28 20 35 0
22 167 220 196 233 6 3 35 25 64 50 81 69 139 85 182 50z m-422 -110 c7 -16
18 -35 26 -41 22 -18 17 -34 -31 -85 -30 -32 -70 -98 -115 -190 -39 -78 -70
-147 -70 -153 0 -6 -11 -33 -24 -59 -13 -26 -26 -65 -30 -87 -16 -101 -22
-116 -82 -188 -34 -40 -69 -88 -78 -105 -32 -62 -73 -25 -61 57 3 25 8 75 11
111 3 36 10 69 15 74 5 6 9 18 9 28 0 9 6 32 14 50 8 18 20 53 27 78 23 83
131 288 181 344 26 30 48 59 48 65 0 6 4 11 9 11 5 0 13 10 16 21 9 28 85 99
106 99 9 0 22 -13 29 -30z m2674 -35 c3 -8 23 -25 45 -39 58 -37 210 -209 250
-285 6 -11 27 -37 47 -58 19 -21 42 -54 51 -73 10 -19 23 -39 29 -45 15 -13
28 -55 17 -55 -5 0 -18 7 -29 15 -10 8 -29 15 -40 15 -12 0 -24 7 -28 15 -3 8
-17 15 -32 15 -46 0 -214 128 -214 164 0 4 -11 21 -25 38 -14 16 -25 40 -25
53 0 13 -4 27 -10 30 -5 3 -10 16 -10 29 0 12 -11 46 -25 74 -14 29 -25 63
-25 76 0 13 -7 29 -15 36 -8 7 -15 19 -15 26 0 12 4 12 24 -1 13 -9 27 -22 30
-30z m317 5 c23 -13 25 -36 3 -44 -9 -3 -17 -6 -19 -6 -9 0 -25 41 -20 50 8
13 12 12 36 0z m-1598 -98 c30 -26 40 -84 22 -134 -8 -24 -15 -51 -15 -60 0
-21 -34 -85 -64 -118 -12 -14 -35 -43 -51 -65 -37 -52 -248 -259 -302 -296
-61 -43 -79 -39 -91 19 -10 44 3 178 21 222 3 8 24 71 47 140 22 69 45 133 50
142 6 10 10 26 10 36 0 39 95 101 155 102 11 0 30 6 41 14 39 27 144 26 177
-2z m3710 -30 c-3 -20 -10 -41 -14 -46 -5 -6 -9 -25 -9 -43 0 -18 -4 -41 -9
-51 -5 -9 -13 -26 -16 -37 -5 -13 -9 -15 -12 -7 -6 16 15 106 33 141 8 14 14
41 14 59 0 18 4 31 9 27 5 -3 7 -22 4 -43z m-2476 -77 c23 -44 42 -87 42 -96
3 -56 118 -180 210 -226 31 -15 60 -33 64 -40 4 -7 19 -13 33 -13 14 0 35 -6
47 -14 12 -8 45 -17 73 -21 67 -9 100 -30 132 -86 15 -26 57 -100 94 -165 67
-118 114 -177 200 -247 54 -45 132 -87 159 -87 10 0 19 -3 19 -8 0 -11 69 -32
123 -37 26 -3 56 -9 67 -15 10 -6 89 -10 182 -10 158 0 196 6 273 39 43 19
136 43 143 37 3 -4 -2 -28 -12 -54 -10 -26 -24 -65 -32 -86 -9 -22 -37 -65
-63 -95 -111 -128 -143 -222 -155 -453 -3 -48 -7 -92 -11 -98 -30 -48 -57
-431 -39 -557 5 -37 3 -53 -5 -53 -6 0 -11 17 -11 43 0 24 -5 48 -11 54 -12
12 -8 166 11 413 19 257 26 315 44 373 13 44 15 62 7 70 -14 14 -57 -34 -66
-73 -11 -47 -112 -72 -345 -85 -81 -4 -259 -7 -275 -5 -5 1 -30 4 -55 6 -164
13 -208 21 -247 42 -23 12 -51 22 -62 22 -11 0 -23 5 -26 10 -3 6 -15 10 -26
10 -11 0 -30 11 -43 25 -13 14 -30 25 -39 25 -9 0 -18 4 -22 9 -3 5 -31 21
-61 35 -58 27 -234 178 -234 201 0 7 -16 30 -36 51 -20 22 -47 64 -60 94 -14
30 -38 71 -53 90 -25 31 -49 86 -52 115 0 6 -7 14 -15 18 -11 6 -13 17 -9 39
5 19 3 28 -2 25 -14 -9 -36 37 -29 60 4 12 0 25 -9 33 -11 9 -15 35 -15 107 0
106 17 280 30 304 5 10 4 21 -2 27 -8 8 -6 18 6 36 9 14 16 40 16 59 0 30 8
64 42 182 16 55 17 57 41 53 16 -2 34 -26 64 -83z m671 -90 c26 -41 27 -48 7
-65 -21 -18 -41 1 -48 47 -10 62 7 70 41 18z m1832 -38 c0 -20 25 -135 40
-182 36 -114 54 -384 32 -480 -42 -186 -55 -236 -63 -241 -5 -3 -9 -12 -9 -20
0 -13 -29 -60 -61 -98 -4 -4 -32 11 -63 35 -30 24 -73 56 -95 71 -36 25 -40
31 -46 85 -3 32 -10 66 -15 75 -6 10 -10 30 -10 45 -1 59 -51 136 -95 145 -22
4 -21 1 -9 141 6 63 9 69 43 95 20 15 44 37 54 49 10 12 50 39 88 59 66 35
139 103 139 129 0 7 9 20 19 29 11 10 22 28 25 42 4 13 11 24 16 24 6 0 10 -1
10 -3z m-646 -514 c13 -81 10 -89 -41 -109 -27 -11 -51 -20 -55 -22 -5 -2 -8
7 -8 21 0 42 60 147 84 147 8 0 16 -17 20 -37z m-683 -18 c10 -16 21 -48 25
-69 7 -39 7 -39 -21 -32 -15 4 -45 21 -66 38 l-38 30 22 34 c27 42 54 41 78
-1z m2016 -52 c4 -9 1 -24 -5 -34 -7 -10 -12 -37 -12 -58 0 -22 -4 -50 -9 -63
-16 -39 -68 -220 -81 -278 -6 -30 -19 -74 -27 -97 -8 -23 -13 -45 -10 -50 2
-4 -3 -30 -12 -58 -13 -40 -24 -54 -56 -72 -22 -13 -54 -23 -70 -23 -37 0
-195 75 -195 92 0 7 -13 21 -29 30 -36 20 -71 85 -71 131 0 23 13 52 40 91 22
31 40 61 40 67 0 20 177 192 235 229 153 97 248 131 262 93z m-1063 -49 c9 -8
19 -27 22 -42 3 -15 12 -43 19 -62 8 -19 16 -60 19 -90 14 -164 27 -278 36
-310 5 -19 9 -65 8 -101 0 -75 -23 -128 -71 -163 -58 -43 -203 -15 -290 56
-58 48 -66 191 -17 289 11 21 20 47 20 58 0 11 5 23 10 26 6 3 10 15 10 27 0
35 119 261 156 296 38 36 55 39 78 16z m-2215 -289 c38 -80 39 -85 45 -182 5
-75 11 -102 36 -151 16 -33 37 -65 45 -72 8 -7 15 -16 15 -21 0 -18 89 -131
121 -155 49 -36 159 -67 211 -60 24 3 68 9 98 12 30 4 67 16 82 27 25 18 32
19 80 8 29 -6 78 -12 108 -14 l55 -2 9 -105 c10 -103 13 -367 5 -465 -2 -27
-2 -68 -1 -90 6 -82 -20 -148 -75 -191 -89 -71 -207 -78 -267 -15 -18 19 -29
46 -37 96 -11 64 -10 76 9 135 34 104 51 139 77 156 32 21 34 68 4 84 -17 9
-23 8 -35 -7 -7 -10 -14 -24 -14 -32 0 -7 -13 -32 -28 -55 -47 -69 -71 -129
-80 -194 -5 -34 -5 -62 0 -62 4 0 8 -15 8 -33 0 -27 -10 -42 -49 -80 -27 -26
-58 -47 -68 -47 -10 0 -23 -4 -29 -9 -5 -6 -47 -12 -94 -14 -104 -5 -149 12
-199 74 l-35 42 -4 168 c-5 177 -10 202 -36 180 -12 -10 -16 -38 -18 -119 l-3
-107 -77 -3 c-65 -2 -82 1 -120 22 -63 35 -96 96 -99 183 -2 72 7 152 22 191
5 13 9 48 9 77 0 67 15 172 42 285 30 133 35 149 51 173 8 12 18 38 22 57 4
19 18 52 31 72 13 21 24 42 24 48 0 6 17 45 39 88 21 42 44 96 52 120 16 56
37 52 68 -13z m2411 -90 c22 -14 47 -36 55 -49 15 -23 15 -27 -10 -65 -30 -44
-29 -44 -78 20 -19 26 -27 48 -27 77 0 23 5 42 10 42 6 0 28 -11 50 -25z m250
-53 c0 -58 4 -75 29 -113 34 -53 76 -99 91 -99 5 0 10 -5 10 -11 0 -5 21 -19
48 -30 26 -11 70 -31 99 -44 40 -19 58 -22 81 -16 56 17 107 44 129 70 l23 26
0 -48 c0 -26 -4 -55 -8 -65 -5 -9 -16 -32 -25 -50 -9 -19 -17 -39 -17 -46 0
-20 -91 -199 -114 -224 -21 -23 -21 -24 -2 -38 11 -8 26 -14 34 -14 13 0 13
-2 0 -17 -20 -23 -29 -73 -17 -95 12 -23 48 -23 55 0 3 9 12 29 20 45 15 27
11 67 -7 67 -18 0 -9 28 15 43 13 9 26 28 29 44 6 30 33 114 48 148 18 43 40
137 38 163 -4 44 10 71 53 98 37 24 77 26 63 4 -8 -13 15 -141 30 -165 7 -11
16 -35 20 -53 4 -18 17 -40 31 -48 13 -9 24 -22 24 -28 0 -18 86 -86 108 -86
11 0 25 -7 32 -15 9 -11 22 -14 41 -10 15 3 30 2 33 -3 10 -16 -14 -82 -34
-92 -11 -6 -20 -17 -20 -24 0 -8 -26 -31 -57 -52 -32 -20 -75 -54 -96 -75 -37
-35 -38 -38 -24 -60 13 -22 13 -27 -4 -54 -10 -16 -28 -49 -40 -73 -13 -23
-35 -55 -51 -70 -15 -15 -28 -31 -28 -37 0 -5 -30 -38 -66 -73 -66 -63 -174
-188 -174 -202 0 -4 -11 -20 -25 -36 -14 -16 -28 -40 -32 -54 -3 -14 -15 -36
-27 -50 -12 -14 -31 -44 -41 -67 -10 -23 -26 -50 -36 -59 -11 -10 -19 -21 -19
-27 0 -5 -11 -22 -25 -39 -14 -16 -25 -36 -25 -43 0 -8 -17 -32 -37 -53 -21
-21 -49 -53 -63 -70 -14 -18 -30 -32 -37 -32 -7 0 -27 -15 -45 -33 -34 -33
-78 -55 -158 -78 -25 -7 -50 -17 -57 -22 -7 -5 -34 -9 -60 -9 -26 0 -53 -5
-60 -10 -7 -5 -22 -6 -35 -2 -13 4 -47 8 -76 9 -29 1 -58 7 -64 13 -7 7 -22
12 -35 12 -13 0 -23 5 -23 10 0 6 -6 10 -14 10 -26 0 -91 35 -125 68 -18 18
-39 32 -45 32 -18 0 -86 84 -119 146 -33 63 -52 170 -71 406 -3 37 -12 84 -21
104 -13 30 -13 44 -4 66 8 20 8 44 0 91 -14 78 -14 171 -1 257 6 36 13 90 15
120 8 83 12 96 41 109 21 9 25 16 19 34 -17 53 -17 236 0 314 24 106 92 240
96 189 1 -9 2 -37 3 -63 2 -37 10 -59 36 -96 19 -27 43 -60 52 -75 27 -41 169
-76 263 -66 71 8 105 37 149 127 26 51 27 61 16 82 -16 29 -7 43 15 25 8 -7
15 -27 15 -46 0 -18 5 -36 11 -40 22 -13 -5 -278 -29 -293 -6 -3 -12 -24 -13
-46 -4 -36 -1 -40 19 -43 14 -2 29 4 37 15 16 20 14 24 19 -47 4 -48 38 -120
57 -120 23 0 29 22 24 90 -7 99 -20 140 -42 140 -12 0 -13 6 -7 28 4 15 8 52
9 82 1 30 5 66 9 80 4 16 1 43 -8 70 -8 25 -18 71 -21 102 -6 51 -4 62 19 103
33 56 143 175 162 175 11 0 14 -17 14 -68z m1318 2 c2 -20 -3 -38 -15 -49 -10
-10 -22 -26 -28 -36 -5 -9 -29 -44 -52 -77 -24 -34 -43 -65 -43 -69 0 -4 -17
-33 -38 -64 -36 -54 -47 -72 -102 -165 -51 -85 -80 -100 -138 -70 -52 28 -162
162 -162 198 0 9 -4 20 -10 23 -5 3 -10 37 -10 74 0 62 2 69 24 79 13 6 39 23
57 39 19 16 59 39 89 52 30 13 78 35 106 47 28 13 60 24 70 24 10 1 33 7 49
15 20 9 60 13 115 12 l85 -2 3 -31z m-3730 -196 c42 -35 97 -72 122 -83 25
-10 52 -25 61 -32 8 -7 18 -13 22 -13 3 0 29 -13 57 -30 28 -16 59 -30 70 -30
18 0 40 -19 23 -21 -20 -2 -46 -8 -61 -15 -9 -4 -45 -8 -80 -10 -83 -4 -163
24 -193 69 -12 18 -33 43 -45 57 -30 32 -114 199 -114 225 1 16 6 13 31 -17
17 -21 65 -66 107 -100z m-568 -963 c23 -25 102 -55 144 -55 54 -1 53 -11 -30
-174 -43 -86 -81 -156 -84 -156 -10 0 -38 72 -46 115 -3 22 -10 47 -14 55 -4
8 -11 66 -15 128 -7 124 -1 136 45 87z m1159 -292 c-20 -117 -72 -267 -93
-271 -21 -4 -46 15 -46 36 0 8 -11 30 -26 49 -14 18 -30 48 -35 66 -6 17 -22
56 -36 85 -33 68 -25 78 48 62 45 -10 64 -9 113 4 32 9 61 18 64 21 13 13 18
-9 11 -52z m-694 -4 c15 -14 138 -10 185 6 24 8 45 13 47 11 21 -21 -136 -316
-176 -331 -36 -14 -84 83 -127 255 -20 82 -20 83 24 75 20 -3 41 -11 47 -16z"/>
<path d="M3766 5553 c-16 -16 -2 -64 34 -127 22 -37 40 -73 40 -80 0 -6 -10
-16 -22 -21 -15 -7 -27 -27 -38 -65 -14 -48 -20 -56 -45 -60 -27 -5 -30 -9
-29 -44 1 -20 6 -47 12 -59 6 -12 13 -87 15 -167 3 -123 8 -157 31 -227 31
-95 87 -176 168 -242 53 -43 53 -43 116 -37 38 3 72 1 88 -6 34 -16 46 3 38
63 -4 29 0 72 11 117 l18 72 -26 58 c-14 31 -33 82 -42 112 -8 30 -23 75 -32
100 -8 25 -18 56 -21 70 -2 14 -24 66 -47 115 -40 85 -58 124 -83 188 -7 15
-16 27 -21 27 -13 0 -71 84 -71 103 0 8 -11 26 -24 40 -14 15 -27 35 -31 46
-6 20 -29 34 -39 24z m162 -306 c11 -24 58 -128 87 -192 34 -76 36 -103 9
-134 -30 -36 -55 -43 -90 -25 -16 9 -39 12 -56 9 -21 -5 -28 -3 -28 9 0 9 -8
24 -18 34 -13 13 -17 33 -17 89 1 41 6 78 14 86 6 9 14 28 17 43 3 16 10 34
16 41 6 7 8 19 5 28 -8 18 19 46 37 39 7 -3 18 -15 24 -27z m-48 -497 c0 -5
-4 -10 -10 -10 -5 0 -10 5 -10 10 0 6 5 10 10 10 6 0 10 -4 10 -10z m108 -134
c22 -19 24 -19 70 -3 80 29 86 22 53 -55 -46 -105 -101 -114 -184 -28 -41 43
-47 54 -46 87 4 71 27 71 107 -1z"/>
<path d="M5736 4824 c-6 -17 23 -59 77 -112 29 -28 36 -30 47 -18 14 18 10 24
-49 94 -47 54 -65 63 -75 36z"/>
<path d="M4483 4792 c-141 -140 -158 -161 -142 -177 13 -14 22 -8 79 55 84 91
120 135 120 149 0 20 -19 11 -57 -27z"/>
<path d="M4727 3975 c-35 -36 -50 -101 -36 -164 8 -39 15 -51 29 -51 18 0 19
7 13 84 l-6 83 32 24 c17 12 31 29 31 36 0 22 -36 15 -63 -12z"/>
<path d="M5929 3889 c-23 -11 -45 -34 -59 -61 -12 -23 -33 -55 -46 -71 -13
-16 -24 -40 -24 -53 0 -22 4 -25 32 -22 27 3 37 12 72 71 43 72 74 87 68 33
-4 -34 14 -49 40 -35 36 19 15 137 -27 153 -9 3 -17 6 -18 5 -1 -1 -18 -9 -38
-20z"/>
<path d="M4829 3841 c-23 -23 -29 -38 -29 -70 0 -34 3 -41 20 -41 13 0 24 10
30 25 20 53 72 24 135 -72 28 -44 60 -56 71 -29 3 8 -7 36 -23 63 -15 26 -32
56 -38 67 -5 10 -38 34 -73 52 l-63 34 -30 -29z"/>
<path d="M6440 4330 c0 -5 5 -10 10 -10 6 0 10 5 10 10 0 6 -4 10 -10 10 -5 0
-10 -4 -10 -10z"/>
<path d="M7505 4190 c-3 -5 -1 -10 4 -10 6 0 11 5 11 10 0 6 -2 10 -4 10 -3 0
-8 -4 -11 -10z"/>
<path d="M3580 3790 c0 -5 5 -10 11 -10 5 0 7 5 4 10 -3 6 -8 10 -11 10 -2 0
-4 -4 -4 -10z"/>
<path d="M1915 3691 c-6 -11 9 -23 19 -14 9 9 7 23 -3 23 -6 0 -12 -4 -16 -9z"/>
<path d="M1860 3650 c0 -5 5 -10 10 -10 6 0 10 5 10 10 0 6 -4 10 -10 10 -5 0
-10 -4 -10 -10z"/>
<path d="M3620 3065 c0 -8 5 -15 10 -15 6 0 10 7 10 15 0 8 -4 15 -10 15 -5 0
-10 -7 -10 -15z"/>
<path d="M3625 2650 c3 -5 8 -10 11 -10 2 0 4 5 4 10 0 6 -5 10 -11 10 -5 0
-7 -4 -4 -10z"/>
<path d="M4120 2050 c0 -5 5 -10 11 -10 5 0 7 5 4 10 -3 6 -8 10 -11 10 -2 0
-4 -4 -4 -10z"/>
<path d="M5115 1960 c-3 -5 1 -10 10 -10 9 0 13 5 10 10 -3 6 -8 10 -10 10 -2
0 -7 -4 -10 -10z"/>
<path d="M4760 1889 c0 -5 5 -7 10 -4 6 3 10 8 10 11 0 2 -4 4 -10 4 -5 0 -10
-5 -10 -11z"/>
<path d="M4805 1890 c3 -5 8 -10 11 -10 2 0 4 5 4 10 0 6 -5 10 -11 10 -5 0
-7 -4 -4 -10z"/>
<path d="M4160 1370 c0 -5 5 -10 10 -10 6 0 10 5 10 10 0 6 -4 10 -10 10 -5 0
-10 -4 -10 -10z"/>
<path d="M4005 940 c3 -5 8 -10 11 -10 2 0 4 5 4 10 0 6 -5 10 -11 10 -5 0 -7
-4 -4 -10z"/>
<path d="M6320 2060 c0 -5 5 -10 10 -10 6 0 10 5 10 10 0 6 -4 10 -10 10 -5 0
-10 -4 -10 -10z"/>
<path d="M6460 1939 c0 -5 5 -7 10 -4 6 3 10 8 10 11 0 2 -4 4 -10 4 -5 0 -10
-5 -10 -11z"/>
<path d="M6947 1873 c-4 -3 -7 -11 -7 -17 0 -6 5 -5 12 2 6 6 9 14 7 17 -3 3
-9 2 -12 -2z"/>
<path d="M6361 434 c0 -11 3 -14 6 -6 3 7 2 16 -1 19 -3 4 -6 -2 -5 -13z"/>
</g>
</svg>
