<?xml version="1.0" standalone="no"?>
<!DOCTYPE svg PUBLIC "-//W3C//DTD SVG 20010904//EN"
 "http://www.w3.org/TR/2001/REC-SVG-20010904/DTD/svg10.dtd">
<svg version="1.0" xmlns="http://www.w3.org/2000/svg"
 width="32.000000pt" height="32.000000pt" viewBox="0 0 32.000000 32.000000"
 preserveAspectRatio="xMidYMid meet">

<g transform="translate(0.000000,32.000000) scale(0.100000,-0.100000)"
fill="#000000" stroke="none">
<path d="M110 248 c0 -6 -3 -9 -6 -5 -4 3 -14 -2 -23 -11 -9 -10 -12 -12 -7
-5 5 8 4 13 -3 13 -6 0 -11 -3 -12 -7 0 -5 -2 -19 -4 -33 -2 -14 1 -43 7 -65
18 -71 17 -68 33 -55 11 9 12 17 4 31 -7 14 -6 28 5 52 12 28 19 97 9 97 -1 0
-3 -5 -3 -12z"/>
<path d="M190 234 c0 -13 7 -19 24 -19 15 0 22 5 18 13 -2 7 -7 10 -10 8 -3
-3 -11 -1 -19 5 -10 9 -13 7 -13 -7z"/>
<path d="M201 196 c-10 -11 -9 -21 2 -43 8 -16 12 -42 10 -61 -5 -29 -3 -33
13 -30 15 2 22 18 31 68 7 43 8 68 2 75 -7 7 -8 4 -3 -9 7 -18 6 -18 -18 -2
-22 14 -27 15 -37 2z"/>
</g>
</svg>
